
<svg width="180" height="60" viewBox="0 0 180 60" fill="none" xmlns="http://www.w3.org/2000/svg">
  <path d="M15 20C18 16 25 14 30 15C36 16 38 22 34 27C30 32 22 34 18 38C14 42 16 50 24 52C32 54 38 50 42 45" stroke="#FFD700" stroke-width="5" stroke-linecap="round" stroke-linejoin="round"/>
  
  <path d="M50 32H62" stroke="#FFD700" stroke-width="5" stroke-linecap="round"/>
  
  <path d="M75 25C75 25 76 45 77 48C78 51 80 48 82 40L85 30L88 40C90 48 92 51 93 48C94 45 95 25 95 25" stroke="#FFD700" stroke-width="2.5" stroke-linecap="round" stroke-linejoin="round"/>
  <path d="M105 40C105 40 115 42 118 38C121 34 118 28 112 28C106 28 103 34 105 42C107 50 115 52 120 48" stroke="#FFD700" stroke-width="2.5" stroke-linecap="round" stroke-linejoin="round"/>
  <path d="M135 15V48M135 35C135 35 138 28 145 28C152 28 155 35 155 40C155 45 152 50 145 50C138 50 135 45 135 45" stroke="#FFD700" stroke-width="2.5" stroke-linecap="round" stroke-linejoin="round"/>
  
  <circle cx="158" cy="48" r="1" fill="#FFD700" opacity="0.6"/>
</svg>
